<?xml version="1.0" encoding="UTF-8" standalone="no"?>
<!-- Created with Inkscape (http://www.inkscape.org/) -->

<svg
   width="520mm"
   height="250mm"
   viewBox="0 0 520 250"
   version="1.1"
   id="svg5"
   xml:space="preserve"
   sodipodi:docname="cipherImage.svg"
   inkscape:version="1.2.1 (9c6d41e410, 2022-07-14)"
   inkscape:export-filename="cipherImage.png"
   inkscape:export-xdpi="96"
   inkscape:export-ydpi="96"
   xmlns:inkscape="http://www.inkscape.org/namespaces/inkscape"
   xmlns:sodipodi="http://sodipodi.sourceforge.net/DTD/sodipodi-0.dtd"
   xmlns="http://www.w3.org/2000/svg"
   xmlns:svg="http://www.w3.org/2000/svg"><sodipodi:namedview
     id="namedview7"
     pagecolor="#ffffff"
     bordercolor="#000000"
     borderopacity="0.25"
     inkscape:showpageshadow="2"
     inkscape:pageopacity="0.0"
     inkscape:pagecheckerboard="0"
     inkscape:deskcolor="#d1d1d1"
     inkscape:document-units="mm"
     showgrid="false"
     inkscape:zoom="0.51276154"
     inkscape:cx="938.05787"
     inkscape:cy="658.20069"
     inkscape:window-width="1920"
     inkscape:window-height="1001"
     inkscape:window-x="-9"
     inkscape:window-y="-9"
     inkscape:window-maximized="1"
     inkscape:current-layer="g3689"
     showguides="false" /><defs
     id="defs2"><inkscape:path-effect
       effect="spiro"
       id="path-effect1439"
       is_visible="true"
       lpeversion="1" /><inkscape:path-effect
       effect="spiro"
       id="path-effect1435"
       is_visible="true"
       lpeversion="1" /><inkscape:path-effect
       effect="spiro"
       id="path-effect412"
       is_visible="true"
       lpeversion="1" /></defs><g
     inkscape:label="Layer 1"
     inkscape:groupmode="layer"
     id="layer1"><g
       id="g3689"
       transform="matrix(0.91666667,0,0,0.90537904,163.7501,-9.4488841)"
       style="stroke-width:1.09769"><circle
         style="fill:#add8fa;fill-opacity:1;fill-rule:evenodd;stroke:none;stroke-width:2.32344;paint-order:stroke markers fill"
         id="path6649"
         cx="104.99989"
         cy="148.50011"
         r="90" /><path
         id="path3637"
         style="display:inline;fill:#075295;fill-opacity:1;stroke-width:1.09769"
         d="m 104.21018,87.035514 c -4.18412,-0.01463 -6.688363,0.415496 -10.492386,1.688269 -10.54027,3.526637 -18.849193,11.653037 -22.57485,22.079277 -0.285999,0.80037 -0.825447,2.70537 -1.198376,4.23333 -0.652839,2.67474 -0.682258,3.15477 -0.800468,12.89844 l -0.12299,10.12031 -2.685624,0.005 c -3.176737,0.005 -5.894271,0.5254 -7.421769,1.42058 -1.365209,0.80006 -3.375794,2.91914 -4.072103,4.29173 -1.135369,2.23808 -1.149818,2.65804 -1.064018,31.19241 l 0.294556,23.41304 5.445662,-7.25744 c 1.024778,-1.36588 1.948115,-2.59491 2.781742,-3.70106 0.833628,-1.10615 1.577618,-2.08966 2.243274,-2.9652 0.665657,-0.87553 1.253187,-1.64311 1.774052,-2.31717 0.520866,-0.67405 0.974823,-1.25426 1.374077,-1.75596 0.199627,-0.25085 0.385568,-0.48235 0.559139,-0.69557 0.17357,-0.21322 0.33483,-0.40832 0.485241,-0.58756 0.150412,-0.17923 0.28998,-0.34255 0.42013,-0.49144 0.130149,-0.14889 0.251017,-0.28348 0.363802,-0.40566 0.112785,-0.12219 0.217425,-0.23161 0.315743,-0.33073 0.09832,-0.0991 0.190237,-0.18799 0.276986,-0.26768 0.08675,-0.0797 0.168419,-0.15055 0.246496,-0.21446 0.07808,-0.0639 0.15249,-0.12083 0.224793,-0.1726 0.127998,-0.0917 0.254301,-0.17952 0.379305,-0.26407 0.125003,-0.0845 0.248792,-0.16571 0.371553,-0.24339 0.122761,-0.0777 0.244599,-0.15217 0.365869,-0.22325 0.121271,-0.0711 0.24172,-0.13888 0.362252,-0.2036 0.120532,-0.0647 0.241189,-0.12639 0.361735,-0.185 0.120546,-0.0586 0.240941,-0.11416 0.362252,-0.16692 0.121311,-0.0528 0.243557,-0.1027 0.366386,-0.14986 0.122829,-0.0471 0.246455,-0.0915 0.371553,-0.13332 0.125099,-0.0418 0.251702,-0.0811 0.379822,-0.11783 0.12812,-0.0367 0.257747,-0.0705 0.38964,-0.10232 0.131894,-0.0319 0.266141,-0.0616 0.40256,-0.0889 0.136419,-0.0272 0.274815,-0.052 0.416512,-0.0749 0.141697,-0.0229 0.286355,-0.0437 0.434082,-0.0625 0.147727,-0.0188 0.298694,-0.0357 0.453202,-0.0506 0.154509,-0.015 0.312865,-0.0284 0.474907,-0.0398 0.162042,-0.0114 0.327833,-0.0209 0.49816,-0.0289 0.169019,-0.008 0.335516,-0.0135 0.499712,-0.0165 0.164195,-0.003 0.326101,-0.004 0.485758,-0.002 0.159657,0.002 0.316918,0.006 0.472323,0.0134 0.155404,0.007 0.309001,0.0168 0.460437,0.0289 0.151435,0.0122 0.300799,0.0266 0.448551,0.0439 0.147752,0.0174 0.293862,0.0373 0.438216,0.0599 0.144354,0.0226 0.287157,0.048 0.428398,0.076 0.14124,0.028 0.280684,0.0586 0.419096,0.092 0.138411,0.0334 0.275476,0.0696 0.411344,0.10852 0.135868,0.0389 0.270501,0.0806 0.40411,0.12505 0.133609,0.0444 0.266273,0.0916 0.397908,0.1416 0.131635,0.05 0.262278,0.10293 0.392224,0.15864 0.129946,0.0557 0.259548,0.11423 0.38809,0.1757 0.128542,0.0615 0.256017,0.12546 0.38344,0.19276 0.127422,0.0673 0.254783,0.13765 0.381372,0.21084 0.126588,0.0732 0.252749,0.14926 0.378788,0.22841 0.04123,0.0259 0.09273,0.0628 0.154512,0.10955 0.06178,0.0467 0.133917,0.10365 0.214974,0.17002 0.162115,0.13273 0.361203,0.30335 0.592729,0.50746 0.231526,0.2041 0.495308,0.44157 0.785999,0.70745 0.29069,0.26587 0.608137,0.55993 0.947745,0.87798 0.339608,0.31805 0.701242,0.65998 1.079521,1.02061 0.378279,0.36063 0.773587,0.74017 1.18029,1.13378 0.406702,0.39361 0.825173,0.80102 1.250053,1.21801 0.42488,0.417 0.856,0.84356 1.28881,1.27435 0.683477,0.68026 1.295094,1.28785 1.842781,1.82934 0.547688,0.54149 1.031244,1.01681 1.458826,1.43351 0.427582,0.4167 0.799251,0.77465 1.122412,1.08055 0.161581,0.15295 0.311169,0.29277 0.449585,0.42065 0.138417,0.12787 0.26571,0.24375 0.382923,0.34829 0.117212,0.10455 0.224491,0.19764 0.32246,0.28061 0.09797,0.083 0.186481,0.15546 0.267168,0.21859 0.08069,0.0631 0.153226,0.11721 0.218591,0.16226 0.06536,0.0451 0.123697,0.0814 0.1757,0.11007 0.052,0.0287 0.09789,0.0494 0.138493,0.0636 0.0203,0.007 0.03902,0.0128 0.05684,0.0165 0.01782,0.004 0.03454,0.006 0.05013,0.006 0.01558,6.5e-4 0.03034,1.7e-4 0.04393,-0.002 0.01359,-0.002 0.02588,-0.006 0.03772,-0.0109 0.01184,-0.005 0.02325,-0.0113 0.03359,-0.0186 0.01034,-0.007 0.01986,-0.0157 0.02894,-0.0253 0.02301,-0.0242 0.114186,-0.13579 0.26665,-0.32556 0.152465,-0.18977 0.365968,-0.45753 0.63407,-0.7953 0.536206,-0.67555 1.290202,-1.62972 2.206062,-2.79208 1.83173,-2.32472 4.31188,-5.48295 6.99906,-8.91315 0.67179,-0.85755 1.33795,-1.70505 1.99057,-2.5337 0.65263,-0.82864 1.29222,-1.63818 1.91048,-2.41897 0.61826,-0.78079 1.21519,-1.53292 1.78387,-2.24689 0.56869,-0.71398 1.10892,-1.38976 1.61282,-2.01797 0.50391,-0.62821 0.97186,-1.20922 1.39578,-1.73271 0.42393,-0.52348 0.80401,-0.98977 1.13275,-1.38958 0.32874,-0.39981 0.60589,-0.73294 0.82424,-0.99012 0.10918,-0.12859 0.20343,-0.23825 0.28215,-0.32763 0.0787,-0.0894 0.14173,-0.15839 0.18811,-0.20618 0.0795,-0.082 0.16013,-0.16256 0.24184,-0.24185 0.0817,-0.0793 0.16475,-0.15751 0.24857,-0.23409 0.0838,-0.0766 0.1684,-0.15147 0.25424,-0.22531 0.0858,-0.0739 0.17267,-0.14648 0.26045,-0.21756 0.0878,-0.0711 0.177,-0.14099 0.26665,-0.20929 0.0896,-0.0683 0.17987,-0.13502 0.2713,-0.20051 0.0914,-0.0655 0.18385,-0.12959 0.27699,-0.19223 0.0931,-0.0626 0.18738,-0.12368 0.28215,-0.18345 0.0948,-0.0598 0.18997,-0.11831 0.28629,-0.17519 0.0963,-0.0569 0.19366,-0.11244 0.29146,-0.16639 0.0978,-0.0539 0.1964,-0.1061 0.29559,-0.1571 0.0992,-0.051 0.1987,-0.1008 0.2992,-0.14883 0.10051,-0.048 0.2016,-0.0945 0.30334,-0.13953 0.10174,-0.045 0.20406,-0.0882 0.30696,-0.13022 0.1029,-0.042 0.2066,-0.0825 0.31058,-0.12144 0.10397,-0.0389 0.20869,-0.0763 0.31367,-0.11214 0.10498,-0.0359 0.21036,-0.0701 0.31626,-0.10283 0.1059,-0.0327 0.2121,-0.0639 0.31885,-0.0935 0.10674,-0.0296 0.21392,-0.0578 0.32142,-0.0842 0.10751,-0.0264 0.2153,-0.0512 0.3235,-0.0744 0.10819,-0.0232 0.21676,-0.0451 0.32556,-0.0651 0.1088,-0.02 0.21778,-0.0385 0.32711,-0.0553 0.10933,-0.0168 0.21888,-0.032 0.32866,-0.0455 0.10978,-0.0135 0.22006,-0.0254 0.33021,-0.0357 0.11016,-0.0102 0.22029,-0.0184 0.33073,-0.0253 0.11045,-0.007 0.22111,-0.012 0.33177,-0.0155 0.11065,-0.004 0.22148,-0.006 0.33228,-0.006 0.11079,-1.5e-4 0.22143,0.001 0.33228,0.005 0.11085,0.003 0.22145,0.008 0.33228,0.015 0.11082,0.007 0.22206,0.0152 0.33279,0.0253 0.11073,0.0101 0.22122,0.022 0.33176,0.0357 0.11055,0.0136 0.22096,0.0289 0.33125,0.046 0.12256,0.0191 0.25372,0.043 0.39119,0.0708 0.13747,0.0278 0.28119,0.0594 0.42892,0.0946 0.14772,0.0352 0.29936,0.0736 0.45268,0.11472 0.15332,0.0412 0.30824,0.085 0.4625,0.13074 0.15427,0.0458 0.30782,0.0936 0.45837,0.14263 0.15056,0.049 0.2981,0.099 0.44029,0.14986 0.14219,0.0508 0.27907,0.10269 0.40824,0.154 0.12918,0.0513 0.25075,0.10205 0.36225,0.15244 0.0949,0.0429 0.18726,0.0867 0.27957,0.13281 0.0923,0.0462 0.18461,0.095 0.27957,0.14935 0.095,0.0543 0.1927,0.11398 0.29559,0.18138 0.10289,0.0674 0.21104,0.14251 0.32711,0.22789 0.11608,0.0854 0.24013,0.18112 0.37466,0.28939 0.13453,0.10827 0.27945,0.22929 0.4377,0.36535 0.15824,0.13607 0.32953,0.28703 0.51676,0.45579 0.18723,0.16876 0.39037,0.35484 0.61185,0.56121 0.22148,0.20636 0.46145,0.43274 0.72244,0.68161 0.26098,0.24887 0.54276,0.52072 0.84852,0.817 0.61153,0.59258 1.31821,1.28485 2.14044,2.09652 0.82223,0.81166 1.76044,1.74274 2.83549,2.81274 1.07505,1.07001 2.28664,2.2787 3.65662,3.64629 l 10.65258,10.63398 v -9.65161 -28.17812 l -0.71313,-1.52239 c -0.92215,-1.96755 -3.00964,-4.16155 -4.77284,-5.01675 -1.93033,-0.93627 -3.7383,-1.26607 -6.93808,-1.26607 h -2.74091 l -0.11989,-9.98802 c -0.10874,-9.05189 -0.1746,-10.2352 -0.7028,-12.62507 -1.51533,-6.85621 -4.50581,-12.45483 -9.34155,-17.489373 -3.12845,-3.257046 -6.25787,-5.547365 -10.12497,-7.409883 -5.35716,-2.580178 -8.38675,-3.29719 -14.68437,-3.47524 -0.67497,-0.01908 -1.30706,-0.02995 -1.90479,-0.03204 z m 0.67954,15.457456 c 1.89179,-0.0277 3.75356,0.0794 4.66483,0.33486 6.44699,1.80711 11.04558,5.48995 13.74387,11.00657 2.0038,4.09677 2.13113,5.0128 2.13113,15.34376 v 8.8775 H 105.05664 84.68372 v -8.8775 c 0,-10.3081 0.125935,-11.22107 2.117183,-15.33188 2.580678,-5.32764 7.371784,-9.26319 13.244157,-10.87944 1.03125,-0.28383 2.95287,-0.44622 4.84466,-0.47387 z"
         inkscape:label="lock" /><g
         id="g3591"
         transform="matrix(2.0250884,0,0,2.0250884,-114.52399,-169.16438)"
         style="display:inline;stroke-width:0.542046"><ellipse
           style="display:inline;fill:#f9a825;fill-opacity:1;fill-rule:evenodd;stroke:none;stroke-width:1.14734;paint-order:stroke markers fill"
           id="path2562"
           cx="100.11893"
           cy="159.18434"
           rx="5.5625005"
           ry="5.5"
           inkscape:label="sun" /><path
           id="path3585"
           style="display:inline;fill:#8bc34a;fill-opacity:1;stroke-width:1.09769"
           d="M 156.25351,183.69008 145.60093,173.0561 c -1.36998,-1.36759 -2.58157,-2.57628 -3.65662,-3.64629 -1.07505,-1.07 -2.01326,-2.00108 -2.83549,-2.81274 -0.82223,-0.81167 -1.52891,-1.50394 -2.14044,-2.09652 -0.30576,-0.29628 -0.58754,-0.56813 -0.84852,-0.817 -0.26099,-0.24887 -0.50096,-0.47525 -0.72244,-0.68161 -0.22148,-0.20637 -0.42462,-0.39245 -0.61185,-0.56121 -0.18723,-0.16876 -0.35852,-0.31972 -0.51676,-0.45579 -0.15825,-0.13606 -0.30317,-0.25708 -0.4377,-0.36535 -0.13453,-0.10827 -0.25858,-0.204 -0.37466,-0.28939 -0.11607,-0.0854 -0.22422,-0.16049 -0.32711,-0.22789 -0.10289,-0.0674 -0.20062,-0.12706 -0.29559,-0.18138 -0.095,-0.0543 -0.18726,-0.10319 -0.27957,-0.14935 -0.0923,-0.0462 -0.18465,-0.0899 -0.27957,-0.13281 -0.1115,-0.0504 -0.23307,-0.10114 -0.36225,-0.15244 -0.12917,-0.0513 -0.26605,-0.10316 -0.40824,-0.154 -0.14219,-0.0508 -0.28973,-0.10087 -0.44029,-0.14986 -0.15055,-0.049 -0.3041,-0.0969 -0.45837,-0.14263 -0.15426,-0.0458 -0.30918,-0.0896 -0.4625,-0.13074 -0.15332,-0.0412 -0.30496,-0.0795 -0.45268,-0.11472 -0.14773,-0.0352 -0.29145,-0.0668 -0.42892,-0.0946 -0.13747,-0.0278 -0.26863,-0.0517 -0.39119,-0.0708 -0.11029,-0.0171 -0.2207,-0.0324 -0.33125,-0.046 -0.11054,-0.0136 -0.22103,-0.0255 -0.33176,-0.0357 -0.11073,-0.0102 -0.22197,-0.0186 -0.33279,-0.0253 -0.11083,-0.007 -0.22143,-0.0117 -0.33228,-0.015 -0.11085,-0.003 -0.22149,-0.005 -0.33228,-0.005 -0.1108,1.5e-4 -0.22163,0.002 -0.33228,0.006 -0.11066,0.004 -0.22132,0.009 -0.33177,0.0155 -0.11044,0.007 -0.22057,0.0151 -0.33073,0.0253 -0.11015,0.0102 -0.22043,0.0221 -0.33021,0.0357 -0.10978,0.0135 -0.21933,0.0287 -0.32866,0.0455 -0.10933,0.0168 -0.21831,0.0353 -0.32711,0.0553 -0.1088,0.02 -0.21737,0.0419 -0.32556,0.0651 -0.1082,0.0232 -0.21599,0.048 -0.3235,0.0744 -0.1075,0.0264 -0.21468,0.0546 -0.32142,0.0842 -0.10675,0.0296 -0.21295,0.0608 -0.31885,0.0935 -0.1059,0.0327 -0.21128,0.067 -0.31626,0.10283 -0.10498,0.0359 -0.2097,0.0732 -0.31367,0.11214 -0.10398,0.0389 -0.20768,0.0794 -0.31058,0.12144 -0.1029,0.042 -0.20522,0.0852 -0.30696,0.13022 -0.10174,0.045 -0.20283,0.0915 -0.30334,0.13953 -0.1005,0.048 -0.20002,0.0978 -0.2992,0.14883 -0.0992,0.051 -0.1978,0.10315 -0.29559,0.1571 -0.0978,0.054 -0.19514,0.10952 -0.29146,0.16639 -0.0963,0.0569 -0.19151,0.11542 -0.28629,0.17519 -0.0948,0.0598 -0.18901,0.12081 -0.28215,0.18345 -0.0931,0.0626 -0.18555,0.12675 -0.27699,0.19223 -0.0914,0.0655 -0.18165,0.13221 -0.2713,0.20051 -0.0897,0.0683 -0.17886,0.1382 -0.26665,0.20929 -0.0878,0.0711 -0.17461,0.14371 -0.26045,0.21756 -0.0858,0.0738 -0.17043,0.14872 -0.25424,0.22531 -0.0838,0.0766 -0.16685,0.1548 -0.24857,0.23409 -0.0817,0.0793 -0.16231,0.15987 -0.24184,0.24185 -0.0464,0.0478 -0.10938,0.11681 -0.18811,0.20618 -0.0787,0.0894 -0.17297,0.19904 -0.28215,0.32763 -0.21835,0.25718 -0.4955,0.59031 -0.82424,0.99012 -0.32874,0.39981 -0.70882,0.8661 -1.13275,1.38958 -0.42392,0.52349 -0.89187,1.1045 -1.39578,1.73271 -0.5039,0.62821 -1.04413,1.30399 -1.61282,2.01797 -0.56868,0.71397 -1.16561,1.4661 -1.78387,2.24689 -0.61826,0.78079 -1.25785,1.59033 -1.91048,2.41897 -0.65262,0.82865 -1.31878,1.67615 -1.99057,2.5337 -2.68718,3.4302 -5.16733,6.58843 -6.99906,8.91315 -0.91586,1.16236 -1.669859,2.11653 -2.206065,2.79208 -0.268102,0.33777 -0.481605,0.60553 -0.63407,0.7953 -0.152464,0.18977 -0.24364,0.30133 -0.26665,0.32556 -0.0091,0.01 -0.0186,0.018 -0.02894,0.0253 -0.01034,0.007 -0.02175,0.0137 -0.03359,0.0186 -0.01184,0.005 -0.02414,0.009 -0.03772,0.0109 -0.01359,0.002 -0.02834,0.003 -0.04393,0.002 -0.01558,-6.4e-4 -0.03231,-0.002 -0.05013,-0.006 -0.01782,-0.004 -0.03654,-0.009 -0.05684,-0.0165 -0.0406,-0.0141 -0.08649,-0.0349 -0.138493,-0.0636 -0.052,-0.0287 -0.110335,-0.065 -0.1757,-0.11007 -0.06536,-0.0451 -0.137905,-0.0991 -0.218591,-0.16226 -0.08069,-0.0631 -0.169198,-0.13563 -0.267168,-0.21859 -0.09797,-0.083 -0.205248,-0.17606 -0.32246,-0.28061 -0.117213,-0.10454 -0.244506,-0.22042 -0.382923,-0.34829 -0.138416,-0.12788 -0.288004,-0.2677 -0.449585,-0.42065 -0.323161,-0.3059 -0.69483,-0.66385 -1.122412,-1.08055 -0.427582,-0.4167 -0.911138,-0.89202 -1.458826,-1.43351 -0.547687,-0.54149 -1.159304,-1.14908 -1.842781,-1.82934 -0.43281,-0.43079 -0.86393,-0.85735 -1.28881,-1.27435 -0.42488,-0.41699 -0.843351,-0.8244 -1.250053,-1.21801 -0.406703,-0.39361 -0.802011,-0.77315 -1.18029,-1.13378 -0.378279,-0.36063 -0.739913,-0.70256 -1.079521,-1.02061 -0.339608,-0.31805 -0.657055,-0.61211 -0.947745,-0.87798 -0.290691,-0.26588 -0.554473,-0.50335 -0.785999,-0.70745 -0.231526,-0.20411 -0.430614,-0.37473 -0.592729,-0.50746 -0.08106,-0.0664 -0.15319,-0.12329 -0.214974,-0.17002 -0.06178,-0.0467 -0.113284,-0.0837 -0.154512,-0.10955 -0.126039,-0.0791 -0.2522,-0.15523 -0.378788,-0.22841 -0.126589,-0.0732 -0.25395,-0.14355 -0.381372,-0.21084 -0.127423,-0.0673 -0.254898,-0.13129 -0.38344,-0.19276 -0.128542,-0.0615 -0.258144,-0.11998 -0.38809,-0.1757 -0.129946,-0.0557 -0.260589,-0.10861 -0.392224,-0.15864 -0.131635,-0.05 -0.264299,-0.0972 -0.397908,-0.1416 -0.133609,-0.0444 -0.268242,-0.0862 -0.40411,-0.12505 -0.135868,-0.0389 -0.272933,-0.0751 -0.411344,-0.10852 -0.138412,-0.0334 -0.277856,-0.064 -0.419096,-0.092 -0.141241,-0.028 -0.284044,-0.0533 -0.428398,-0.076 -0.144354,-0.0226 -0.290464,-0.0426 -0.438216,-0.0599 -0.147752,-0.0174 -0.297116,-0.0318 -0.448551,-0.0439 -0.151436,-0.0122 -0.305033,-0.0219 -0.460437,-0.0289 -0.155405,-0.007 -0.312666,-0.0115 -0.472323,-0.0134 -0.159657,-0.002 -0.321563,-10e-4 -0.485758,0.002 -0.164196,0.003 -0.330693,0.009 -0.499712,0.0165 -0.170327,0.008 -0.336118,0.0176 -0.49816,0.0289 -0.162042,0.0114 -0.320398,0.0248 -0.474907,0.0398 -0.154508,0.015 -0.305475,0.0318 -0.453202,0.0506 -0.147727,0.0188 -0.292385,0.0396 -0.434082,0.0625 -0.141697,0.0229 -0.280093,0.0477 -0.416512,0.0749 -0.136419,0.0273 -0.270666,0.057 -0.40256,0.0889 -0.131893,0.0319 -0.26152,0.0656 -0.38964,0.10232 -0.12812,0.0367 -0.254723,0.076 -0.379822,0.11783 -0.125098,0.0418 -0.248724,0.0862 -0.371553,0.13332 -0.122829,0.0472 -0.245075,0.0971 -0.366386,0.14986 -0.121311,0.0528 -0.241706,0.1083 -0.362252,0.16692 -0.120546,0.0586 -0.241203,0.12028 -0.361735,0.185 -0.120532,0.0647 -0.240981,0.13253 -0.362252,0.2036 -0.12127,0.0711 -0.243108,0.14556 -0.365869,0.22325 -0.122761,0.0777 -0.24655,0.15885 -0.371553,0.24339 -0.125004,0.0846 -0.251307,0.17241 -0.379305,0.26407 -0.0723,0.0518 -0.146716,0.10868 -0.224793,0.1726 -0.07808,0.0639 -0.159748,0.13476 -0.246496,0.21446 -0.08675,0.0797 -0.178668,0.16856 -0.276986,0.26768 -0.09832,0.0991 -0.202958,0.20854 -0.315743,0.33073 -0.112785,0.12218 -0.233653,0.25677 -0.363802,0.40566 -0.13015,0.14889 -0.269718,0.31221 -0.42013,0.49144 -0.150411,0.17924 -0.311671,0.37434 -0.485241,0.58756 -0.173571,0.21322 -0.359512,0.44472 -0.559139,0.69557 -0.399254,0.5017 -0.853211,1.08191 -1.374077,1.75596 -0.520865,0.67406 -1.108395,1.44164 -1.774052,2.31717 -0.665656,0.87554 -1.409646,1.85905 -2.243274,2.9652 -0.833627,1.10615 -1.756964,2.33518 -2.781742,3.70106 l -5.445662,7.25744 0.0155,1.21647 0.450101,3.0365 c 0.405679,2.73796 3.191405,5.77376 6.019788,6.88279 1.187675,0.46538 3.085684,0.48315 44.769352,0.43046 l 43.52965,-0.0548 1.75958,-0.86609 c 2.17964,-1.07307 4.1664,-3.16407 5.02347,-5.2865 l 0.61391,-1.52032 z"
           inkscape:label="bigMtn"
           transform="matrix(0.49380561,0,0,0.49380561,56.552588,83.534319)" /><path
           id="path3585-1"
           style="display:inline;fill:#689f38;fill-opacity:1;stroke-width:0.542045"
           d="m 94.971836,169.95892 c -0.07884,-9.9e-4 -0.158791,-6.9e-4 -0.239871,7.6e-4 -0.08108,0.001 -0.163553,0.004 -0.247015,0.008 -0.08411,0.004 -0.165723,0.009 -0.245739,0.0143 -0.08002,0.006 -0.158215,0.0122 -0.234512,0.0197 -0.0763,0.007 -0.150845,0.0157 -0.223794,0.025 -0.07295,0.009 -0.144381,0.0196 -0.214352,0.0309 -0.06997,0.0113 -0.138311,0.0236 -0.205676,0.037 -0.06736,0.0135 -0.133911,0.0281 -0.199041,0.0439 -0.06513,0.0157 -0.128885,0.0324 -0.192152,0.0505 -0.06327,0.0181 -0.125783,0.0375 -0.187558,0.0582 -0.06177,0.0206 -0.122821,0.0426 -0.183475,0.0658 -0.06065,0.0233 -0.121019,0.0479 -0.180923,0.074 -0.0599,0.0261 -0.119356,0.0535 -0.178882,0.0824 -0.05953,0.0289 -0.119108,0.0594 -0.178627,0.0914 -0.05952,0.0319 -0.118998,0.0654 -0.178882,0.10054 -0.05988,0.0351 -0.120048,0.0719 -0.180668,0.11024 -0.06062,0.0384 -0.121749,0.0784 -0.183475,0.12019 -0.06173,0.0418 -0.124098,0.0851 -0.187303,0.1304 -0.0357,0.0256 -0.07245,0.0537 -0.111004,0.0852 -0.03856,0.0316 -0.07888,0.0665 -0.121722,0.1059 -0.04284,0.0394 -0.08823,0.0832 -0.136777,0.13218 -0.04855,0.0489 -0.100222,0.10298 -0.155915,0.16332 -0.05569,0.0603 -0.11538,0.12679 -0.179648,0.20031 -0.06427,0.0735 -0.133188,0.15418 -0.207462,0.24268 -0.07427,0.0885 -0.153906,0.18485 -0.239615,0.29014 -0.08571,0.10529 -0.17753,0.21961 -0.276106,0.34348 -0.197154,0.24774 -0.42132,0.53425 -0.678527,0.8671 -0.257205,0.33285 -0.547587,0.71189 -0.876292,1.14423 -0.328704,0.43235 -0.696092,0.91801 -1.107741,1.46423 -0.411649,0.54623 -0.867345,1.15313 -1.373385,1.82761 l -2.689098,3.58376 0.0074,0.6007 0.222263,1.49944 c 0.200325,1.35202 1.575936,2.85112 2.972604,3.39876 0.4458,0.17468 1.214523,0.22095 10.540257,0.22201 l 7.833787,-9.93343 v -0.0699 c -0.004,2.3e-4 -0.007,7.8e-4 -0.0115,5.2e-4 -0.008,-3.2e-4 -0.016,-8.4e-4 -0.0248,-0.003 -0.009,-0.002 -0.018,-0.004 -0.0281,-0.008 -0.02,-0.007 -0.0427,-0.0172 -0.0684,-0.0314 -0.0257,-0.0142 -0.0545,-0.0321 -0.0868,-0.0543 -0.0323,-0.0223 -0.0678,-0.0489 -0.10769,-0.0801 -0.0399,-0.0311 -0.0838,-0.067 -0.13218,-0.10794 -0.0484,-0.041 -0.10136,-0.0869 -0.15924,-0.13856 -0.0579,-0.0516 -0.12048,-0.10885 -0.18883,-0.172 -0.0683,-0.0631 -0.14247,-0.13218 -0.22226,-0.20771 -0.15958,-0.15106 -0.34312,-0.32782 -0.55426,-0.53359 -0.21114,-0.20577 -0.44967,-0.44048 -0.72012,-0.70787 -0.27045,-0.26739 -0.57272,-0.56742 -0.91023,-0.90334 -0.21372,-0.21272 -0.42661,-0.42336 -0.63642,-0.62928 -0.20981,-0.20591 -0.41645,-0.40709 -0.61728,-0.60146 -0.20083,-0.19436 -0.396035,-0.38178 -0.58283,-0.55986 -0.18679,-0.17808 -0.365365,-0.34693 -0.533066,-0.50399 -0.1677,-0.15705 -0.324201,-0.30226 -0.467747,-0.43355 -0.143544,-0.13129 -0.273801,-0.24855 -0.38813,-0.34934 -0.114329,-0.10079 -0.212639,-0.18505 -0.292693,-0.25059 -0.04003,-0.0328 -0.0759,-0.0609 -0.10641,-0.084 -0.03051,-0.0231 -0.05569,-0.0413 -0.07604,-0.0541 -0.06224,-0.0391 -0.124539,-0.0766 -0.187048,-0.11278 -0.06251,-0.0361 -0.125402,-0.0709 -0.188324,-0.10411 -0.06292,-0.0332 -0.126124,-0.0648 -0.189599,-0.0952 -0.06347,-0.0304 -0.127473,-0.0592 -0.191641,-0.0868 -0.06417,-0.0275 -0.128425,-0.0536 -0.193427,-0.0783 -0.065,-0.0247 -0.130513,-0.048 -0.19649,-0.0699 -0.06598,-0.0219 -0.132459,-0.0426 -0.199552,-0.0617 -0.06709,-0.0192 -0.134776,-0.0371 -0.203124,-0.0536 -0.06835,-0.0165 -0.137207,-0.0316 -0.206952,-0.0454 -0.06974,-0.0138 -0.140262,-0.0263 -0.211545,-0.0375 -0.07128,-0.0112 -0.143433,-0.0213 -0.216393,-0.0299 -0.07296,-0.009 -0.146719,-0.0157 -0.221498,-0.0217 -0.07478,-0.006 -0.150627,-0.0106 -0.227366,-0.014 -0.07674,-0.003 -0.154396,-0.006 -0.233235,-0.007 z"
           inkscape:label="smallMtn" /></g></g></g></svg>
